# xmcd
# 
# Track frame offsets:
#     150
#     21839
#     42772
#     76223
#     100556
#     110569
#     116397
#     141362
#     169587
#     188653
#     225948
#     256346
#     274539
#     304472
# 
# Disc length: 4565
# 
# Revision: 6
# Processed by: cddbd v1.5.2PL0 Copyright (c) Steve Scherf et al.
# Submitted via: fre:ac v1.0.31
# 
DISCID=a911d30e
DTITLE=Various Artist - Crossroads:  Eric Clapton Guitar Festival (2013)
DYEAR=2013
DGENRE=Blues
TTITLE0=Eric Clapton - Tears In Heaven
TTITLE1=Eric Clapton with Vince Gill - Lay Down Sally
TTITLE2=Booker T with Steve Cropper, Keb' Mo', Blake Mills, Matt "Guitar" Murphy and Albert Lee - Green Onions
TTITLE3=Kurt Rosenwinkel - Heavenly Bodies
TTITLE4=Earl Klugh - This Time
TTITLE5=Earl Klugh - Mirabella
TTITLE6=Robert Cray Band - Great Big Old House
TTITLE7=Doyle Bramhall II with Gary Clark, Jr. - She's Alright
TTITLE8=Doyle Bramhall II with Citizen Cope - Bullet And A Target
TTITLE9=John Mayer - Queen of California
TTITLE10=John Mayer with Keith Urban - Don't Let Me Down
TTITLE11=Gary Clark, Jr. - Next Door Neighbor Blues
TTITLE12=Buddy Guy with Robert Randolf and Quinn Sullivan - Damn Right, I've Got the Blues
TTITLE13=The Allman Brothers Band with Eric Clapton - Why Does Love Got to Be So Sad
EXTD=YEAR: 2013
EXTT0=
EXTT1=
EXTT2=
EXTT3=
EXTT4=
EXTT5=
EXTT6=
EXTT7=
EXTT8=
EXTT9=
EXTT10=
EXTT11=
EXTT12=
EXTT13=
PLAYORDER=
